<svg xmlns="http://www.w3.org/2000/svg" viewBox="0 0 1440 659" width="1440" height="659" preserveAspectRatio="xMidYMid meet" style="width: 100%; height: 100%; transform: translate3d(0px, 0px, 0px); content-visibility: visible;"><defs><clipPath id="__lottie_element_26"><rect width="1440" height="659" x="0" y="0"></rect></clipPath></defs><g clip-path="url(#__lottie_element_26)"><g id="animation" transform="matrix(1,0,0,1,0,26.39801025390625)" opacity="1" style="display: block;"><g id="port" opacity="1" transform="matrix(1,0,0,1,0,0)"><path fill="#FF6EC7" fill-opacity="1" d=" M1232.0628662109375,-25.788982391357422 C1174.182861328125,-25.58898162841797 1104.4613037109375,-6.375761985778809 1031.111328125,26.18423843383789 C968.0213012695312,54.18423843383789 902.1751098632812,92.22931671142578 840.1251220703125,128.4193115234375 C740.6151123046875,186.4693145751953 656.4728393554688,260.0688781738281 550.0616455078125,280.0596923828125 C309.3721008300781,319.4942932128906 150.67669677734375,294.74591064453125 29.006694793701172,258.7759094238281 C19.006694793701172,255.81591796875 8.049695014953613,253.14291381835938 -0.8233048319816589,250.555908203125 C-0.8233048319816589,250.555908203125 0.47612810134887695,326.78076171875 0.47612810134887695,326.78076171875 C0.47612810134887695,326.78076171875 9.99612808227539,326.78076171875 9.99612808227539,326.78076171875 C107.44612884521484,355.59075927734375 259.4587707519531,400.76776123046875 416.9935607910156,400.76776123046875 C467.70355224609375,400.76776123046875 529.4850463867188,392.15301513671875 581.9150390625,381.8030090332031 C689.2250366210938,360.6130065917969 793.3582763671875,296.8284912109375 897.9483032226562,235.80850219726562 C958.3182983398438,200.59849548339844 1017.4848022460938,166.16236877441406 1076.974853515625,139.79237365722656 C1140.974853515625,111.34236907958984 1192.76611328125,98.95002746582031 1240.526123046875,98.780029296875 C1240.526123046875,98.780029296875 1240.99609375,98.780029296875 1240.99609375,98.780029296875 C1283.05615234375,98.780029296875 1339.52001953125,119.03414154052734 1405.1500244140625,156.01414489746094 C1417.050048828125,162.71414184570312 1429.7900390625,170.3741455078125 1440,176.77413940429688 C1440,176.77413940429688 1440,36.24199295043945 1440,36.24199295043945 C1343.5400390625,-35.058006286621094 1232.262939453125,-25.788982391357422 1232.0628662109375,-25.788982391357422 C1232.0628662109375,-25.788982391357422 1232.0628662109375,-25.788982391357422 1232.0628662109375,-25.788982391357422z"></path></g><g id="ice" opacity="1" transform="matrix(1,0,0,1,0,0)"><path fill="#FF7F50" fill-opacity="1" d=" M0,574.7741088867188 C0,574.7741088867188 88.18258666992188,651.0054931640625 292.0325927734375,628.7554931640625 C487.8406066894531,628.60400390625 626.0316772460938,482.0184631347656 762.0111083984375,391.18182373046875 C880.1311645507812,318.202392578125 970.2191772460938,359.97515869140625 1042.0191650390625,402.32513427734375 C1095.3492431640625,433.775146484375 1148.8323974609375,473.057861328125 1195.9923095703125,513.1878662109375 C1325.0323486328125,622.8978881835938 1440,546.228759765625 1440,546.228759765625 C1440,546.228759765625 1439.993408203125,268.7909851074219 1439.993408203125,268.7909851074219 C1439.993408203125,268.7909851074219 1083.7156982421875,174.91099548339844 902.025634765625,268.7909851074219 C720.3356323242188,362.6709899902344 57.619998931884766,520.22607421875 0,433.7660827636719 C0,433.7660827636719 0,574.7741088867188 0,574.7741088867188z"></path></g><g id="red" opacity="1" transform="matrix(1,0,0,1,0,0)"><path fill="#40E0D0" fill-opacity="1" d=" M0,324.77630615234375 C108.77664184570312,335.85931396484375 452.542724609375,434.88629150390625 880.0118408203125,199.04653930664062 C1242.201904296875,-78.57345581054688 1403.604736328125,19.26062774658203 1440,168.80641174316406 C1440,168.80641174316406 1440,301.2329406738281 1440,301.2329406738281 C1440,301.2329406738281 1383.008544921875,363.52117919921875 1227.7685546875,301.3511962890625 C1077.726318359375,239.34982299804688 989.3023681640625,212.7056884765625 790.0223388671875,336 C594.7100219726562,457.806396484375 277.0611572265625,653.8128051757812 0,514.7660522460938 C0,514.7660522460938 0,324.77630615234375 0,324.77630615234375z"></path></g><g id="mango" opacity="1" transform="matrix(1,0,0,1,0,0)"><path fill="#39FF14" fill-opacity="1" d=" M1125.0084228515625,133.0403289794922 C1255.8553466796875,85.71109771728516 1342.76123046875,94.99532318115234 1398.8599853515625,190.6699981689453 C1398.8599853515625,190.6699981689453 1350.016357421875,249.12249755859375 1251.036376953125,210.9824981689453 C1211.036376953125,195.5625 1112.533203125,161.2434539794922 1050.083251953125,182.9734649658203 C1072.4532470703125,164.58346557617188 1125.0084228515625,133.0403289794922 1125.0084228515625,133.0403289794922 C1125.0084228515625,133.0403289794922 1125.0084228515625,133.0403289794922 1125.0084228515625,133.0403289794922z"></path></g></g></g></svg>