<svg xmlns="http://www.w3.org/2000/svg" height="659" width="100%" viewBox="0 0 450 50" preserveAspectRatio="xMidYMid meet">
    <g>
      <path
        d="M0,50 C50,50 100,50 150,50 200,50 250,50 300,50 350,50 400,50 450,50"
        stroke="#FF6EC7"
        stroke-width="1"
        fill="none"
      >
        <animate
          attributeName="d"
          values="
          M0,50 C50,50 100,50 150,50 200,50 250,50 300,50 350,50 400,50 450,50;
          M0,50 C50,25 100,75 150,50 200,25 250,75 300,50 350,25 400,75 450,50;
          M0,50 C50,75 100,25 150,50 200,75 250,25 300,50 350,75 400,25 450,50;
          M0,50 C50,50 100,50 150,50 200,50 250,50 300,50 350,50 400,50 450,50"
          dur="40s"
          repeatCount="indefinite"
        />
      </path>
    </g>
    <g>
      <path
        d="M0,50 C50,50 100,50 150,50 200,50 250,50 300,50 350,50 400,50 450,50"
        stroke="#FF7F50"
        stroke-width="1"
        fill="none"
       >
        <animate
          attributeName="d"
          values="
          M0,50 C50,50 100,50 150,50 200,50 250,50 300,50 350,50 400,50 450,50;
          M0,50 C50,0 100,100 150,50 200,0 250,100 300,50 350,0 400,100 450,50;
          M0,50 C50,100 100,0 150,50 200,100 250,0 300,50 350,100 400,0 450,50;
          M0,50 C50,50 100,50 150,50 200,50 250,50 300,50 350,50 400,50 450,50"
          dur="30s"
          repeatCount="indefinite"
        />
      </path>
    </g>
    <g>
      <path
        d="M0,75 C50,75 100,75 150,75 200,75 250,75 300,75 350,75 400,75 450,75"
        stroke="#40E0D0"
        stroke-width="1"
        fill="none"
      >
        <animate
        attributeName="d"
        values="
        M0,75 C50,75 100,75 150,75 200,75 250,75 300,75 350,75 400,75 450,75;
        M0,75 C50,50 100,100 150,75 200,50 250,100 300,75 350,50 400,100 450,75;
        M0,75 C50,100 100,50 150,75 200,100 250,50 300,75 350,100 400,50 450,75;
        M0,75 C50,75 100,75 150,75 200,75 250,75 300,75 350,75 400,75 450,75"
        dur="33s"
        repeatCount="indefinite"
      />
    </path>
    </g>
</svg>